<?xml version="1.0" standalone="no"?>
<!DOCTYPE svg PUBLIC "-//W3C//DTD SVG 20010904//EN"
 "http://www.w3.org/TR/2001/REC-SVG-20010904/DTD/svg10.dtd">
<svg version="1.0" xmlns="http://www.w3.org/2000/svg"
 width="475.000000pt" height="475.000000pt" viewBox="0 0 475.000000 475.000000"
 preserveAspectRatio="xMidYMid meet">

<g transform="translate(0.000000,475.000000) scale(0.100000,-0.100000)"
fill="#000000" stroke="none">
<path d="M795 2435 c-38 -46 -75 -86 -81 -88 -5 -3 -49 33 -97 80 -48 46 -91
83 -95 81 -4 -2 -84 -88 -177 -193 -92 -104 -182 -205 -199 -222 l-30 -33 86
0 86 0 88 102 c49 56 104 118 122 137 l32 36 85 -87 c47 -49 89 -88 94 -88 4
0 54 53 111 118 57 64 113 127 124 140 l20 22 -39 40 c-22 22 -44 40 -50 40
-5 -1 -41 -39 -80 -85z"/>
<path d="M1614 2347 c-2 -7 -3 -74 -2 -148 3 -111 6 -134 18 -134 13 0 15 24
18 148 2 128 0 147 -13 147 -9 0 -18 -6 -21 -13z"/>
<path d="M1705 2348 c-3 -8 -4 -75 -3 -149 3 -111 6 -134 18 -134 12 0 16 21
18 118 1 64 6 117 10 117 4 0 24 -48 46 -108 43 -120 55 -137 84 -128 15 5 30
36 60 118 22 62 45 114 51 116 9 3 12 -25 10 -108 -1 -71 3 -116 10 -123 25
-25 32 11 29 149 l-3 139 -35 0 -34 0 -45 -118 c-25 -64 -49 -116 -54 -114 -5
1 -29 54 -53 117 -41 110 -44 115 -73 118 -19 2 -33 -2 -36 -10z"/>
<path d="M2203 2348 c-6 -7 -38 -73 -71 -146 -50 -111 -58 -134 -45 -139 16
-6 25 3 55 57 17 31 18 31 90 28 l73 -3 21 -40 c20 -39 55 -60 53 -33 0 7 -28
74 -62 148 -48 104 -67 136 -83 138 -11 2 -25 -3 -31 -10z m57 -95 c30 -68 28
-73 -29 -73 -28 0 -52 4 -55 9 -8 13 44 122 54 116 5 -3 19 -26 30 -52z"/>
<path d="M2494 2340 c-57 -28 -78 -71 -72 -144 8 -95 76 -144 184 -133 86 9
95 18 92 90 l-3 62 -58 3 c-52 3 -58 1 -55 -15 2 -13 13 -18 38 -18 32 0 35
-3 38 -33 3 -27 -1 -34 -25 -43 -15 -6 -48 -9 -73 -6 -82 9 -125 91 -85 166
24 48 80 59 190 40 31 -6 26 33 -5 42 -51 14 -125 9 -166 -11z"/>
<path d="M2752 2214 c3 -125 5 -149 18 -149 11 0 16 14 18 58 l3 57 49 0 c47
0 51 -2 80 -42 16 -24 35 -52 43 -62 9 -13 20 -17 31 -13 14 6 12 14 -20 62
l-37 55 32 29 c38 36 41 78 7 118 -22 26 -29 27 -125 31 l-102 4 3 -148z m188
86 c24 -24 25 -38 3 -62 -13 -14 -31 -18 -85 -18 l-68 0 0 50 0 50 65 0 c52 0
69 -4 85 -20z"/>
<path d="M3138 2293 c-16 -38 -45 -101 -64 -142 -21 -46 -31 -78 -25 -84 14
-14 29 0 49 41 l17 37 77 3 77 3 20 -46 c15 -34 25 -46 38 -43 10 2 17 8 16
14 -1 5 -29 71 -63 147 -55 122 -65 137 -87 137 -20 0 -29 -11 -55 -67z m86
-39 c14 -31 23 -60 20 -65 -9 -15 -104 -11 -104 5 0 24 44 116 56 116 1 0 14
-25 28 -56z"/>
<path d="M3370 2340 c0 -18 6 -20 55 -20 l54 0 3 -127 c3 -118 4 -128 22 -128
17 0 19 9 20 125 l1 125 58 3 c49 3 58 6 55 20 -3 15 -20 17 -136 20 -127 2
-132 2 -132 -18z"/>
<path d="M3674 2347 c-2 -7 -3 -74 -2 -148 l3 -134 106 -3 c87 -2 108 0 112
12 9 23 -10 29 -87 27 -39 -1 -77 3 -84 7 -8 6 -12 24 -10 48 l3 39 70 2 c39
1 76 2 83 2 6 1 12 8 12 16 0 12 -15 15 -74 15 -82 0 -100 11 -94 57 l3 28 88
3 c79 3 87 5 87 22 0 19 -7 20 -105 20 -78 0 -107 -3 -111 -13z"/>
<path d="M4120 2340 c-45 -84 -119 -265 -111 -273 14 -14 29 0 49 41 l17 37
77 3 77 3 20 -46 c19 -43 51 -62 51 -31 0 8 -28 76 -61 150 -54 118 -65 136
-85 136 -13 0 -28 -9 -34 -20z m64 -86 c14 -31 23 -60 20 -65 -8 -14 -104 -11
-104 3 0 19 43 118 51 118 4 0 19 -25 33 -56z"/>
<path d="M4347 2353 c-4 -3 -7 -69 -7 -145 0 -118 2 -140 16 -145 9 -3 19 -1
23 5 3 5 5 73 3 151 -2 106 -6 141 -16 141 -7 0 -16 -3 -19 -7z"/>
<path d="M1011 2299 c-18 -22 -32 -42 -30 -44 2 -2 46 -47 97 -100 l94 -95 85
0 c46 0 83 4 81 8 -6 15 -275 272 -284 272 -5 0 -24 -19 -43 -41z"/>
<path d="M801 2060 c-41 -50 -79 -90 -84 -90 -5 0 -50 39 -99 88 l-90 87 -38
-45 -39 -45 122 -123 c67 -68 129 -127 138 -132 12 -7 38 16 120 108 160 178
148 157 103 203 -21 21 -43 39 -49 39 -5 0 -44 -41 -84 -90z"/>
</g>
</svg>
